<svg xmlns="http://www.w3.org/2000/svg" viewBox="0 0 1200 1500" width="1200" height="1500">
  <rect width="1200" height="1500" fill="#eef0e9" />
  <line x1="0" y1="0" x2="0" y2="1500" stroke="#3f6b53" stroke-width="2" opacity="0.5" />
<line x1="80" y1="0" x2="80" y2="1500" stroke="#3f6b53" stroke-width="2" opacity="0.15" />
<line x1="160" y1="0" x2="160" y2="1500" stroke="#3f6b53" stroke-width="2" opacity="0.15" />
<line x1="240" y1="0" x2="240" y2="1500" stroke="#3f6b53" stroke-width="2" opacity="0.5" />
<line x1="320" y1="0" x2="320" y2="1500" stroke="#3f6b53" stroke-width="2" opacity="0.15" />
<line x1="400" y1="0" x2="400" y2="1500" stroke="#3f6b53" stroke-width="2" opacity="0.15" />
<line x1="480" y1="0" x2="480" y2="1500" stroke="#3f6b53" stroke-width="2" opacity="0.5" />
<line x1="560" y1="0" x2="560" y2="1500" stroke="#3f6b53" stroke-width="2" opacity="0.15" />
<line x1="640" y1="0" x2="640" y2="1500" stroke="#3f6b53" stroke-width="2" opacity="0.15" />
<line x1="720" y1="0" x2="720" y2="1500" stroke="#3f6b53" stroke-width="2" opacity="0.5" />
<line x1="800" y1="0" x2="800" y2="1500" stroke="#3f6b53" stroke-width="2" opacity="0.15" />
<line x1="880" y1="0" x2="880" y2="1500" stroke="#3f6b53" stroke-width="2" opacity="0.15" />
<line x1="960" y1="0" x2="960" y2="1500" stroke="#3f6b53" stroke-width="2" opacity="0.5" />
<line x1="1040" y1="0" x2="1040" y2="1500" stroke="#3f6b53" stroke-width="2" opacity="0.15" />
<line x1="1120" y1="0" x2="1120" y2="1500" stroke="#3f6b53" stroke-width="2" opacity="0.15" />
<line x1="0" y1="0" x2="1200" y2="0" stroke="#3f6b53" stroke-width="2" opacity="0.5" />
<line x1="0" y1="80" x2="1200" y2="80" stroke="#3f6b53" stroke-width="2" opacity="0.15" />
<line x1="0" y1="160" x2="1200" y2="160" stroke="#3f6b53" stroke-width="2" opacity="0.15" />
<line x1="0" y1="240" x2="1200" y2="240" stroke="#3f6b53" stroke-width="2" opacity="0.5" />
<line x1="0" y1="320" x2="1200" y2="320" stroke="#3f6b53" stroke-width="2" opacity="0.15" />
<line x1="0" y1="400" x2="1200" y2="400" stroke="#3f6b53" stroke-width="2" opacity="0.15" />
<line x1="0" y1="480" x2="1200" y2="480" stroke="#3f6b53" stroke-width="2" opacity="0.5" />
<line x1="0" y1="560" x2="1200" y2="560" stroke="#3f6b53" stroke-width="2" opacity="0.15" />
<line x1="0" y1="640" x2="1200" y2="640" stroke="#3f6b53" stroke-width="2" opacity="0.15" />
<line x1="0" y1="720" x2="1200" y2="720" stroke="#3f6b53" stroke-width="2" opacity="0.5" />
<line x1="0" y1="800" x2="1200" y2="800" stroke="#3f6b53" stroke-width="2" opacity="0.15" />
<line x1="0" y1="880" x2="1200" y2="880" stroke="#3f6b53" stroke-width="2" opacity="0.15" />
<line x1="0" y1="960" x2="1200" y2="960" stroke="#3f6b53" stroke-width="2" opacity="0.5" />
<line x1="0" y1="1040" x2="1200" y2="1040" stroke="#3f6b53" stroke-width="2" opacity="0.15" />
<line x1="0" y1="1120" x2="1200" y2="1120" stroke="#3f6b53" stroke-width="2" opacity="0.15" />
<line x1="0" y1="1200" x2="1200" y2="1200" stroke="#3f6b53" stroke-width="2" opacity="0.5" />
<line x1="0" y1="1280" x2="1200" y2="1280" stroke="#3f6b53" stroke-width="2" opacity="0.15" />
<line x1="0" y1="1360" x2="1200" y2="1360" stroke="#3f6b53" stroke-width="2" opacity="0.15" />
<line x1="0" y1="1440" x2="1200" y2="1440" stroke="#3f6b53" stroke-width="2" opacity="0.5" />
<rect x="380.0" y="530.0" width="440" height="440" fill="#3f6b53" opacity="0.85" />
  <rect width="1200" height="1500" fill="url(#grain)" opacity="0.03" />
</svg>